<?xml version="1.0" encoding="iso-8859-1"?>
<!-- Generator: Adobe Illustrator 19.0.0, SVG Export Plug-In . SVG Version: 6.00 Build 0)  -->
<svg version="1.1" id="Layer_1" xmlns="http://www.w3.org/2000/svg" xmlns:xlink="http://www.w3.org/1999/xlink" x="0px" y="0px"
	 viewBox="0 0 512 512" style="enable-background:new 0 0 512 512;" xml:space="preserve">
<g>
	<g>
		<path d="M256,0C162.59,0,86.867,75.724,86.867,169.133c0,34.924,10.587,67.376,28.725,94.321
			c33.928,50.4,52.205,109.86,52.205,170.614v0.037c0,15.408,12.491,27.899,27.899,27.899h10.308
			C206.004,489.616,228.388,512,256,512c27.612,0,49.996-22.384,49.996-49.996h10.308c15.408,0,27.9-12.491,27.9-27.899v-0.037
			c0-61.042,18.116-119.977,52.205-170.614c18.139-26.945,28.725-59.396,28.725-94.321C425.133,75.724,349.409,0,256,0z
			 M316.872,203.271l-83.631,114.35c-1.903,2.602-5.362,3.527-8.309,2.222c-2.948-1.304-4.589-4.487-3.943-7.644l17.387-85.006
			h-42.888c-4.141,0-7.93-2.327-9.804-6.019c-1.874-3.692-1.515-8.125,0.93-11.467l83.631-114.35
			c1.903-2.602,5.362-3.527,8.309-2.222c2.948,1.304,4.589,4.486,3.943,7.644l-17.387,85.006h42.888c4.141,0,7.93,2.327,9.804,6.019
			C319.676,195.496,319.318,199.929,316.872,203.271z"/>
	</g>
</g>
<g>
</g>
<g>
</g>
<g>
</g>
<g>
</g>
<g>
</g>
<g>
</g>
<g>
</g>
<g>
</g>
<g>
</g>
<g>
</g>
<g>
</g>
<g>
</g>
<g>
</g>
<g>
</g>
<g>
</g>
</svg>
