<?xml version="1.0" encoding="utf-8"?>
<!-- Generator: Adobe Illustrator 24.0.1, SVG Export Plug-In . SVG Version: 6.00 Build 0)  -->
<svg version="1.1" id="Layer_1" xmlns="http://www.w3.org/2000/svg" xmlns:xlink="http://www.w3.org/1999/xlink" x="0px" y="0px"
	 viewBox="0 0 511.9 511.9" style="enable-background:new 0 0 511.9 511.9;" xml:space="preserve">
<style type="text/css">
	.st0{stroke:#004B74;stroke-width:3;stroke-miterlimit:10;}
</style>
<g>
	<g>
		<g>
			<path class="st0" d="M265.7,166.3c-1.5-2.6-1.6-5.8-0.1-8.5l35.6-64.1h-31.6L219,187.6h28.4c2.8,0,5.4,1.4,7,3.7
				c1.6,2.3,1.9,5.3,0.9,7.9l-23.8,61.9l74.5-90.5H273C270,170.5,267.2,169,265.7,166.3z"/>
			<path class="st0" d="M425.5,155.2C416.8,74.8,352,9.9,271.6,1c-4.8-0.5-9.9-0.9-15.9-1c-5.6,0.1-10.7,0.5-15.5,1
				C159.8,9.9,95.1,74.8,86.3,155.2c-6,54.7,13.3,107.7,52.7,145.6c18.1,17.4,31.2,37.5,37.5,57.5h158.7c6.4-20,19.4-40.1,37.5-57.5
				C412.3,263,431.5,209.9,425.5,155.2z M330.8,167.4L211.3,312.5c-1.7,2-4.1,3.1-6.6,3.1c-1.5,0-3-0.4-4.3-1.2
				c-3.6-2.1-5.2-6.5-3.7-10.4l38.2-99.3h-30.2c-3,0-5.8-1.6-7.3-4.2c-1.5-2.6-1.6-5.8-0.2-8.4L257,81.2c1.5-2.8,4.4-4.5,7.5-4.5
				h51.2c3,0,5.8,1.6,7.4,4.2c1.5,2.6,1.6,5.8,0.1,8.5l-35.6,64.1h36.7c3.3,0,6.3,1.9,7.7,4.9C333.3,161.4,332.9,164.9,330.8,167.4z
				"/>
			<path class="st0" d="M179.1,392.4h68.3c4.7,0,8.5,3.8,8.5,8.5s-3.8,8.5-8.5,8.5h-68.3v17.1h42.7c4.7,0,8.5,3.8,8.5,8.5
				s-3.8,8.5-8.5,8.5h-42.7v25.6c0,4.7,3.8,8.5,8.5,8.5h12.8l15.4,20.5c6.4,8.5,16.6,13.7,27.3,13.7h25.6c10.7,0,20.9-5.1,27.3-13.7
				l15.4-20.5h12.8c4.7,0,8.5-3.8,8.5-8.5v-25.6h-68.3c-4.7,0-8.5-3.8-8.5-8.5s3.8-8.5,8.5-8.5h68.3v-17.1h-42.7
				c-4.7,0-8.5-3.8-8.5-8.5s3.8-8.5,8.5-8.5h42.7v-17.1H179.1L179.1,392.4L179.1,392.4z M290.1,477.8l-7.7,10.2
				c-3.2,4.3-8.3,6.8-13.7,6.8h-25.6c-5.3,0-10.4-2.6-13.7-6.8l-7.7-10.2H290.1z"/>
		</g>
	</g>
</g>
</svg>
