<?xml version="1.0" encoding="iso-8859-1"?>
<!-- Generator: Adobe Illustrator 19.0.0, SVG Export Plug-In . SVG Version: 6.00 Build 0)  -->
<svg version="1.1" id="Layer_1" xmlns="http://www.w3.org/2000/svg" xmlns:xlink="http://www.w3.org/1999/xlink" x="0px" y="0px"
	 viewBox="0 0 512 512" style="enable-background:new 0 0 512 512;" xml:space="preserve">
<circle style="fill:#FFEA8D;" cx="256.006" cy="462.002" r="49.998"/>
<g>
	<path style="fill:#FFDC35;" d="M305.996,462.004c0-27.612-22.384-49.996-49.996-49.996V512
		C283.612,512,305.996,489.616,305.996,462.004z"/>
	<path style="fill:#FFDC35;" d="M425.133,169.133C425.133,75.724,349.41,0,256,0S86.867,75.724,86.867,169.133
		c0,34.925,10.587,67.376,28.725,94.321c33.928,50.4,52.205,109.859,52.205,170.614v0.037c0,15.408,12.491,27.9,27.9,27.9h120.609
		c15.408,0,27.9-12.491,27.9-27.9v-0.037c0-61.042,18.116-119.977,52.205-170.614C414.547,236.509,425.133,204.058,425.133,169.133z
		"/>
</g>
<path style="fill:#FF9900;" d="M256,0v462.004h60.304c15.408,0,27.9-12.491,27.9-27.9v-0.037
	c0-61.042,18.116-119.977,52.205-170.614c18.139-26.945,28.725-59.396,28.725-94.321C425.133,75.724,349.41,0,256,0z"/>
<path style="fill:#ACACB2;" d="M158.272,358.648c6.276,24.526,9.524,49.858,9.524,75.421v0.037c0,15.408,12.491,27.9,27.9,27.9
	h120.609c15.408,0,27.9-12.491,27.9-27.9v-0.037c0-25.667,3.216-50.958,9.462-75.42H158.272V358.648z"/>
<path style="fill:#3E3E42;" d="M316.872,203.271c2.444-3.342,2.804-7.775,0.93-11.467c-1.874-3.692-5.664-6.019-9.804-6.019H265.11
	l17.387-85.006c0.646-3.158-0.995-6.34-3.943-7.644c-2.948-1.304-6.406-0.38-8.309,2.222l-83.631,114.349
	c-2.444,3.342-2.804,7.775-0.93,11.467s5.664,6.019,9.804,6.019h42.888l-17.387,85.006c-0.646,3.158,0.995,6.34,3.943,7.644
	s6.406,0.38,8.309-2.222L316.872,203.271z"/>
<path style="fill:#797882;" d="M256,462.004h60.304c15.408,0,27.9-12.491,27.9-27.9v-0.037c0-25.667,3.216-50.958,9.462-75.42H256
	L256,462.004L256,462.004z"/>
<g>
</g>
<g>
</g>
<g>
</g>
<g>
</g>
<g>
</g>
<g>
</g>
<g>
</g>
<g>
</g>
<g>
</g>
<g>
</g>
<g>
</g>
<g>
</g>
<g>
</g>
<g>
</g>
<g>
</g>
</svg>
