<?xml version="1.0" encoding="utf-8"?>
<!-- Generator: Adobe Illustrator 24.0.1, SVG Export Plug-In . SVG Version: 6.00 Build 0)  -->
<svg version="1.1" id="Layer_1" xmlns="http://www.w3.org/2000/svg" xmlns:xlink="http://www.w3.org/1999/xlink" x="0px" y="0px"
	 viewBox="0 0 512 512" style="enable-background:new 0 0 512 512;" xml:space="preserve">
<style type="text/css">
	.st0{fill:#FFDD09;stroke:#DCE11F;stroke-width:3;stroke-miterlimit:10;}
	.st1{fill:#FD9808;stroke:#DCE11F;stroke-width:3;stroke-miterlimit:10;}
	.st2{fill:#FFFFFF;stroke:#DCE11F;stroke-width:3;stroke-miterlimit:10;}
	.st3{fill:#FCC309;stroke:#DCE11F;stroke-width:3;stroke-miterlimit:10;}
	.st4{stroke:#DCE11F;stroke-width:3;stroke-miterlimit:10;}
</style>
<g transform="translate(0 1)">
	<path class="st0" d="M416.4,155.2c-8.5-76.8-70-138.2-146.8-146.8c-4.3,0-9.4-0.9-14.5-0.9c-5.1,0-9.4,0-14.5,0.9
		c-76.8,8.5-138.2,70.8-146.8,146.8c-6,54.6,14.5,104.1,50.3,138.2c20.5,19.6,37.5,45.2,42.7,72.5h136.5
		c5.1-27.3,22.2-52.9,42.7-72.5C401.9,259.3,422.4,209.8,416.4,155.2"/>
	<path class="st1" d="M416.4,155.2c-8.5-76.8-70-138.2-146.8-146.8c-4.3-0.9-9.4-0.9-14.5-0.9c-4.3,0-8.5,0-12.8,0.9
		c0.9,0,1.7,0,1.7,0c75.9,8.5,138.2,70,146.8,146.8c6,54.6-14.5,104.1-50.3,138.2c-20.5,19.6-37.5,45.2-42.7,72.5h25.6
		c5.1-27.3,22.2-52.9,42.7-72.5C401.9,259.3,422.4,209.8,416.4,155.2"/>
	<path class="st2" d="M93.9,155.2c8.5-76.8,70-138.2,146.8-146.8c5.1,0,9.4-0.9,14.5-0.9c4.3,0,8.5,0,12.8,0.9c-0.9,0-1.7,0-1.7,0
		C189.4,16.9,128,79.2,119.5,155.2c-6,54.6,14.5,104.1,50.3,138.2c20.5,19.6,37.5,45.2,42.7,72.5h-25.6
		c-5.1-27.3-22.2-52.9-42.7-72.5C108.4,259.3,87.9,209.8,93.9,155.2"/>
	<path class="st0" d="M186.9,365.9v102.4h136.5v-68.3v-34.1H186.9z"/>
	<path class="st1" d="M297.8,468.3h25.6V365.9h-25.6V468.3z"/>
	<path class="st2" d="M186.9,468.3h25.6V365.9h-25.6V468.3z"/>
	<path class="st0" d="M267.9,502.5h-25.6c-7.7,0-15.4-3.4-20.5-10.2l-17.9-23.9h102.4l-17.9,23.9
		C283.3,499.1,275.6,502.5,267.9,502.5"/>
	<path class="st3" d="M324.3,161.1h-51.2l42.7-76.8h-51.2l-59.7,110.9h42.7l-42.7,110.9L324.3,161.1z"/>
	<path class="st4" d="M324.3,476.9H187.7c-5.1,0-8.5-3.4-8.5-8.5V365.9c0-5.1,3.4-8.5,8.5-8.5h136.5c5.1,0,8.5,3.4,8.5,8.5v102.4
		C332.8,473.5,329.4,476.9,324.3,476.9z M196.3,459.8h119.5v-85.3H196.3V459.8z"/>
	<path class="st4" d="M268.8,511h-25.6c-11.1,0-20.5-5.1-27.3-13.7L198,473.5c-1.7-2.6-2.6-6-0.9-8.5s4.3-5.1,7.7-5.1h102.4
		c3.4,0,6,1.7,7.7,5.1c1.7,2.6,0.9,6-0.9,8.5l-17.9,23.9C290.1,505.9,279.9,511,268.8,511z M221.9,476.9l7.7,10.2
		c3.4,4.3,8.5,6.8,13.7,6.8h25.6c5.1,0,10.2-2.6,13.7-6.8l7.7-10.2H221.9z"/>
	<path class="st4" d="M247.5,408.6h-59.7c-5.1,0-8.5-3.4-8.5-8.5s3.4-8.5,8.5-8.5h59.7c5.1,0,8.5,3.4,8.5,8.5
		S252.6,408.6,247.5,408.6z"/>
	<path class="st4" d="M324.3,442.7h-59.7c-5.1,0-8.5-3.4-8.5-8.5s3.4-8.5,8.5-8.5h59.7c5.1,0,8.5,3.4,8.5,8.5
		S329.4,442.7,324.3,442.7z"/>
	<path class="st4" d="M324.3,408.6h-34.1c-5.1,0-8.5-3.4-8.5-8.5s3.4-8.5,8.5-8.5h34.1c5.1,0,8.5,3.4,8.5,8.5
		S329.4,408.6,324.3,408.6z"/>
	<path class="st4" d="M221.9,442.7h-34.1c-5.1,0-8.5-3.4-8.5-8.5s3.4-8.5,8.5-8.5h34.1c5.1,0,8.5,3.4,8.5,8.5
		C230.4,439.3,227,442.7,221.9,442.7z"/>
	<path class="st4" d="M204.8,314.7c-1.7,0-2.6,0-4.3-0.9c-3.4-1.7-5.1-6.8-3.4-10.2l38.4-99.8h-30.7c-3.4,0-6-1.7-7.7-4.3
		s-1.7-6,0-8.5l59.7-110.9c1.7-2.6,4.3-4.3,7.7-4.3h51.2c3.4,0,6,1.7,7.7,4.3s1.7,6,0,8.5l-35.8,64h36.7c3.4,0,6,1.7,7.7,5.1
		s0.9,6.8-0.9,9.4L211.6,312.2C209.9,313.9,207.4,314.7,204.8,314.7z M219.3,186.7h28.2c2.6,0,5.1,1.7,6.8,3.4
		c1.7,2.6,1.7,5.1,0.9,7.7l-23.9,61.4l75.1-89.6h-33.3c-3.4,0-6-1.7-7.7-4.3s-1.7-6,0-8.5l35.8-64h-31.6L219.3,186.7z"/>
	<path class="st4" d="M324.3,374.5H187.7c-4.3,0-7.7-2.6-8.5-6.8c-5.1-23-18.8-46.9-40.1-67.4c-39.3-37.5-58.9-91.3-52.9-145.9
		C94.7,74.1,159.6,9.2,239.8-0.1C244.9-0.1,250-1,256-1c6,0,11.1,0.9,16.2,0.9c80.2,8.5,145.1,73.4,153.6,154.5l0,0
		c6,54.6-13.7,107.5-52.9,145.9c-21.3,20.5-35.8,44.4-40.1,67.4C331.9,371.9,328.5,374.5,324.3,374.5z M194.6,357.4h122.9
		c6.8-24.7,22.2-48.6,43.5-70c35.8-34.1,52.9-81.9,47.8-131.4l0,0c-7.7-72.5-66.6-130.6-139.1-139.1c-4.3,0-8.5-0.9-13.7-0.9
		s-9.4,0.9-13.7,0.9C169.8,25.5,111.8,83.5,103.3,156c-5.1,49.5,11.9,97.3,47.8,131.4C172.4,308.8,187.7,332.7,194.6,357.4z"/>
</g>
</svg>
